<?xml version="1.0" encoding="utf-8"?>
<!-- Generator: Adobe Illustrator 16.0.0, SVG Export Plug-In . SVG Version: 6.00 Build 0)  -->
<!DOCTYPE svg PUBLIC "-//W3C//DTD SVG 1.1//EN" "http://www.w3.org/Graphics/SVG/1.1/DTD/svg11.dtd">
<svg version="1.1" id="Layer_1" xmlns="http://www.w3.org/2000/svg" xmlns:xlink="http://www.w3.org/1999/xlink" x="0px" y="0px"
	 width="133px" height="32.742px" viewBox="-1.5 -0.281 133 32.742" enable-background="new -1.5 -0.281 133 32.742"
	 xml:space="preserve">
<g>
	<path fill="#FFFFFF" d="M17.878,9.188c-0.67,0-1.34-0.257-1.884-0.899c1.13-0.686,1.884-2.271,1.884-3.685
		c0-1.5-0.837-2.871-3.057-2.871c-2.303,0-3.894,1.371-3.894,3.728c0,6.727,9.421,7.112,9.421,16.667
		c0,6.042-4.354,9.94-11.096,9.94C5.903,32.067,0,31.339,0,25.169c0-4.027,2.931-6.17,6.155-6.17c1.884,0,3.056,0.644,3.391,2.186
		c-3.391,0.3-4.898,1.757-4.898,4.713c0,2.871,2.177,4.113,4.145,4.113c3.308,0,4.606-2.956,4.606-6.127
		c0-8.055-9.044-9.812-9.044-16.196c0-4.499,4.982-7.969,9.965-7.969c2.219,0,7.034,0.343,7.034,5.142
		C21.354,7.302,20.056,9.188,17.878,9.188z"/>
	<path fill="#FFFFFF" d="M37.929,31.854c-0.391,0-0.698-0.129-0.921-0.386c-0.224-0.257-0.335-0.542-0.335-0.857
		c0-0.171-0.062-0.278-0.188-0.321c-0.125-0.043-0.245,0.008-0.355,0.15c-0.391,0.543-0.97,0.985-1.737,1.328
		c-0.768,0.343-1.696,0.515-2.784,0.515c-0.978,0-1.87-0.187-2.679-0.558c-0.81-0.37-1.507-0.899-2.093-1.585
		c-0.586-0.686-1.047-1.507-1.382-2.464s-0.502-2.007-0.502-3.15v-3.813c0-1.114,0.195-2.171,0.586-3.171
		c0.39-1,0.942-1.864,1.653-2.593c0.712-0.729,1.556-1.307,2.533-1.736c0.977-0.428,2.051-0.643,3.224-0.643h6.238
		c0.39,0,0.697,0.114,0.921,0.343c0.223,0.229,0.335,0.543,0.335,0.943v16.713c0,0.4-0.112,0.714-0.335,0.942
		c-0.224,0.229-0.531,0.343-0.921,0.343H37.929z M36.673,16.641c0-0.285-0.14-0.428-0.418-0.428h-3.14
		c-1.396,0-2.477,0.444-3.244,1.329c-0.768,0.886-1.151,1.942-1.151,3.171v4.242c0,1.086,0.314,1.972,0.942,2.657
		s1.5,1.028,2.617,1.028c0.753,0,1.402-0.136,1.947-0.407c0.544-0.271,0.998-0.636,1.36-1.093c0.362-0.457,0.635-0.964,0.816-1.521
		c0.181-0.557,0.272-1.136,0.272-1.735V16.641z"/>
	<path fill="#FFFFFF" d="M68.071,31.854c-0.392,0-0.698-0.114-0.921-0.343c-0.224-0.229-0.335-0.542-0.335-0.942V19.426
		c0-0.456-0.07-0.899-0.21-1.328s-0.349-0.814-0.628-1.157s-0.635-0.621-1.067-0.835c-0.433-0.214-0.956-0.321-1.57-0.321
		c-0.614,0-1.137,0.107-1.569,0.321c-0.433,0.214-0.789,0.493-1.068,0.835c-0.279,0.343-0.481,0.729-0.607,1.157
		s-0.188,0.872-0.188,1.328v11.143c0,0.4-0.112,0.714-0.335,0.942c-0.224,0.229-0.53,0.343-0.921,0.343h-1.256
		c-0.391,0-0.698-0.114-0.921-0.343c-0.224-0.229-0.335-0.542-0.335-0.942V19.426c0-0.456-0.07-0.899-0.209-1.328
		c-0.14-0.429-0.349-0.814-0.628-1.157c-0.279-0.343-0.635-0.621-1.067-0.835c-0.433-0.214-0.942-0.321-1.528-0.321
		c-0.586,0-1.103,0.107-1.549,0.321c-0.447,0.214-0.81,0.493-1.088,0.835c-0.279,0.343-0.489,0.729-0.628,1.157
		c-0.14,0.429-0.209,0.872-0.209,1.328v11.143c0,0.4-0.112,0.714-0.335,0.942c-0.224,0.229-0.531,0.343-0.921,0.343H46.72
		c-0.392,0-0.698-0.114-0.921-0.343c-0.224-0.229-0.335-0.542-0.335-0.942V19.426c0-1.028,0.174-1.992,0.523-2.893
		c0.349-0.899,0.837-1.671,1.465-2.313c0.628-0.643,1.388-1.15,2.282-1.521c0.893-0.371,1.884-0.557,2.972-0.557
		c1.061,0,2.002,0.2,2.826,0.6c0.823,0.4,1.514,0.843,2.072,1.329c0.278,0.257,0.544,0.257,0.795,0c0.53-0.542,1.207-1,2.03-1.372
		c0.823-0.371,1.793-0.557,2.909-0.557c1.089,0,2.079,0.187,2.973,0.557c0.894,0.372,1.654,0.878,2.282,1.521
		c0.628,0.643,1.115,1.414,1.465,2.313c0.349,0.9,0.523,1.864,0.523,2.893v11.143c0,0.4-0.112,0.714-0.335,0.942
		c-0.224,0.229-0.53,0.343-0.921,0.343H68.071z"/>
	<path fill="#FFFFFF" d="M101.271,31.854l-2.22-10.712l-6.07,10.712h-2.555l7.872-14.226L95.2,2.589
		c-3.894,1.457-6.238,4.799-6.238,9.512c0,2.185,0.544,2.528,0.586,2.914c-2.889,0-4.48-1.071-4.48-4.156
		c0-5.698,7.704-11.14,14.696-11.14c0.587,0,1.131,0.042,1.675,0.085l1.801,8.912l4.857-8.784h2.931l-7.034,12.469l3.936,19.452
		H101.271z"/>
	<path fill="#FFFFFF" d="M124.797,13.855c0-0.4,0.111-0.714,0.335-0.943c0.224-0.229,0.53-0.343,0.921-0.343h1.256
		c0.391,0,0.698,0.114,0.922,0.343c0.223,0.229,0.335,0.543,0.335,0.943v10.713c0,1.028-0.183,2.015-0.545,2.957
		c-0.363,0.942-0.872,1.765-1.527,2.464c-0.656,0.7-1.452,1.258-2.387,1.672c-0.936,0.413-1.988,0.621-3.161,0.621
		c-1.172,0-2.226-0.208-3.16-0.621c-0.936-0.414-1.737-0.972-2.407-1.672c-0.67-0.699-1.187-1.521-1.55-2.464
		c-0.362-0.942-0.544-1.929-0.544-2.957V13.855c0-0.4,0.111-0.714,0.335-0.943c0.224-0.229,0.53-0.343,0.921-0.343h1.256
		c0.391,0,0.697,0.114,0.921,0.343c0.224,0.229,0.335,0.543,0.335,0.943v10.713c0,1.086,0.314,2.036,0.942,2.85
		c0.628,0.814,1.611,1.222,2.951,1.222s2.316-0.407,2.931-1.222c0.613-0.813,0.921-1.764,0.921-2.85V13.855z"/>
</g>
</svg>
