<?xml version="1.0" encoding="utf-8"?>
<!-- Generator: Adobe Illustrator 16.0.0, SVG Export Plug-In . SVG Version: 6.00 Build 0)  -->
<!DOCTYPE svg PUBLIC "-//W3C//DTD SVG 1.1//EN" "http://www.w3.org/Graphics/SVG/1.1/DTD/svg11.dtd">
<svg version="1.1" id="Layer_1" xmlns="http://www.w3.org/2000/svg" xmlns:xlink="http://www.w3.org/1999/xlink" x="0px" y="0px"
	 width="2031.051px" height="1267.164px" viewBox="0 0 2031.051 1267.164" enable-background="new 0 0 2031.051 1267.164"
	 xml:space="preserve">
<path stroke="#F2F2F2" stroke-miterlimit="10" d="M1761.777,1118.462c0,27.476-22.282,49.749-49.751,49.749H319
	c-27.475,0-49.751-22.273-49.751-49.749V222.947c0-27.477,22.277-49.75,49.751-49.75h1393.026c27.469,0,49.751,22.273,49.751,49.75
	V1118.462z"/>
<rect x="15.525" y="1111.343" fill="#F2F2F2" width="1999.979" height="66.821"/>
<polygon fill="#B3B3B3" points="2015.525,1178.144 1864.136,1235.604 166.885,1235.604 15.545,1178.144 "/>
<rect x="338.9" y="244.017" fill="#FFFFFF" width="1353.227" height="804.303"/>
<text transform="matrix(1 0 0 1 524.873 401.5615)"><tspan x="0" y="0" font-family="'MyriadPro-Regular'" font-size="59.7009">Skills:</tspan><tspan x="0" y="143.282" font-family="'MyriadPro-Regular'" font-size="59.7009">Kicking ass, taking names.</tspan><tspan x="0" y="214.923" font-family="'MyriadPro-Regular'" font-size="59.7009">I have all the fucking skills in the world </tspan><tspan x="0" y="286.564" font-family="'MyriadPro-Regular'" font-size="59.7009">you motherfucker</tspan><tspan x="0" y="429.847" font-family="'MyriadPro-Regular'" font-size="59.7009">Suck my dick while im pissin</tspan><tspan x="0" y="501.487" font-family="'MyriadPro-Regular'" font-size="59.7009">I hope no future employer is reading</tspan><tspan x="0" y="573.129" font-family="'MyriadPro-Regular'" font-size="59.7009">this :(</tspan></text>
</svg>
