<?xml version="1.0" encoding="utf-8"?>
<!-- Generator: Adobe Illustrator 16.0.0, SVG Export Plug-In . SVG Version: 6.00 Build 0)  -->
<!DOCTYPE svg PUBLIC "-//W3C//DTD SVG 1.1//EN" "http://www.w3.org/Graphics/SVG/1.1/DTD/svg11.dtd">
<svg version="1.1" id="Layer_1" xmlns="http://www.w3.org/2000/svg" xmlns:xlink="http://www.w3.org/1999/xlink" x="0px" y="0px"
	 width="231px" height="127px" viewBox="0 0 231 127" enable-background="new 0 0 231 127" xml:space="preserve">
<g>
	<g>
		<path fill="#FFFB54" d="M102.354,18.122c5.858-3.88,11.423-5.934,14.058,2.036c2.362,7.144,2.271,15.062,3.146,22.473
			c0.542,4.593,1.064,12.702,6.114,14.867c6.778,2.906,14.34-6.927,17.66-11.304c-1.003-0.423-2.005-0.845-3.008-1.268
			c-0.469,2.843-0.022,5.584,0.052,8.438c0.026,1.013,0.958,1.725,1.943,1.48c8.639-2.144,16.976,1.415,25.592,0.261
			c1.086-0.146,1.594-1.874,0.285-2.11c-8.628-1.561-18.078-3.531-26.693-1.112c0.647,0.494,1.296,0.987,1.943,1.48
			c-0.114-2.475-0.604-5.132,0.052-7.562c0.421-1.563-1.598-2.813-2.75-1.601c-2.399,2.523-11.6,14.686-15.344,8.263
			c-3.254-5.583-2.971-13.791-3.687-20.021c-0.688-5.989-1.143-13.375-5.145-18.23c-4.382-5.316-11.396-0.987-15.283,2.531
			C100.55,17.41,101.52,18.674,102.354,18.122L102.354,18.122z"/>
	</g>
</g>
<g>
	<g>
		<path fill="#FFFB54" d="M134.044,13.581c0.261-0.751,0.505-1.434,0.594-2.218c0.053-0.467-0.505-0.834-0.922-0.702
			c-3.603,1.14-5.386,7.666-6.652,10.688c-2.459,5.872-3.998,12.081-6.423,17.944c-9.603,23.22-15.42,47.8-24.784,71.099
			c0.751,0.102,1.503,0.204,2.255,0.305c0.717-20.941-16.629-32.241-35.232-36.019c-16.739-3.399-37.309-3.224-53.366,3.278
			c-1.107,0.448-1.619,2.065-0.358,2.738c9.338,4.984,20.39,4.374,30.649,4.144c14.408-0.323,28.86,1.171,43.222,2.167
			c31.492,2.185,63.341,2.046,94.884,0.954c1.381-0.048,1.389-2.133,0-2.148c-29.662-0.331-59.317,0.892-88.948-0.98
			c-14.478-0.915-28.983-2.614-43.492-2.863c-11.467-0.197-24.281,1.79-34.803-3.859c-0.119,0.913-0.238,1.825-0.358,2.738
			c14.87-5.98,33.264-6.151,48.862-3.677c18.703,2.966,35.878,12.75,36.645,33.529c0.049,1.332,1.823,1.515,2.255,0.305
			c7.629-21.37,13.91-43.213,21.843-64.472c2.31-6.189,4.466-12.358,6.652-18.59c1.148-3.275,2.336-6.536,3.712-9.723
			c0.574-1.329,1.219-2.623,1.927-3.885c0.226-0.391,0.469-0.771,0.729-1.14c0.629-0.936,0.336-1.773-0.17,0.033
			C132.53,14.061,133.766,14.38,134.044,13.581L134.044,13.581z"/>
	</g>
</g>
<g>
	<g>
		<path fill="#EFBB2B" d="M47.577,6.248c-15.737,1.33-34.829,5.86-45.787,18.11c-0.838,0.937-0.439,2.225,0.7,2.65
			c11.249,4.197,27.31-5.167,36.543,4.115c10.048,10.1-3.662,28.22-13.315,32.807c-4.12,1.958-9.031,2.919-13.573,2.609
			c-7.989-0.544,0.907-9.025,3.274-11.271c11.644-11.04,29.39-9.771,43.926-13.436c2.06-0.52,1.181-3.584-0.87-3.157
			c-6.303,1.313-10.699,5.451-11.505,11.921c-0.064,0.51,0.432,1.147,0.935,1.228c6.103,0.979,9.31-4.036,11.862-8.854
			c-0.616-0.167-1.233-0.334-1.85-0.501c0.005,1.724,0.01,3.448,0.016,5.171c0.002,0.715,0.837,1.252,1.47,0.844
			c2.706-1.746,5.421-2.794,7.541-5.314c-0.564-0.234-1.127-0.467-1.691-0.701c0.132,2.403,0.628,4.616,1.276,6.938
			c0.217,0.776,1.243,1.072,1.815,0.479c2.999-3.104,5.71-6.455,8.756-9.515c-0.69-0.286-1.38-0.572-2.07-0.857
			c0.137,3.586,0.542,9.757,5.573,9.153c4.527-0.544,8.571-5.759,11.186-9.013c-0.708-0.293-1.415-0.586-2.123-0.879
			c0.357,3.758,1.248,7.62,5.456,8.375c4.274,0.767,8.683-2.036,12.744-2.888c1.2-0.251,0.941-2.255-0.291-2.148
			c-2.596,0.226-5.026,0.962-7.483,1.804c-4.925,1.688-7.505,0.363-7.939-5.143c-0.076-0.966-1.367-1.794-2.123-0.879
			c-1.905,2.305-3.865,4.515-6.152,6.451c-1.074,0.91-2.46,1.837-3.89,2.011c-2.709,0.331-2.52-5.569-2.533-6.844
			c-0.012-1.109-1.289-1.537-2.07-0.857c-3.309,2.875-5.86,6.289-8.578,9.693c0.605,0.16,1.21,0.319,1.815,0.479
			c-0.664-2.145-1.201-4.085-1.39-6.36c-0.063-0.755-1.098-1.448-1.691-0.701c-1.954,2.461-4.57,3.402-7.125,5.028
			c0.49,0.281,0.98,0.562,1.47,0.844c0.005-1.724,0.01-3.448,0.016-5.171c0.003-0.97-1.373-1.38-1.85-0.501
			c-1.917,3.532-4.51,8.693-9.472,7.399c0.297,0.522,0.593,1.044,0.89,1.566c1.181-5.288,4.598-8.232,9.874-9.103
			c-0.29-1.052-0.58-2.105-0.87-3.157c-17.958,3.733-39.25,2.94-51.049,19.675c-2.482,3.521-4.14,8.331,0.421,10.913
			c4.432,2.51,11.196,0.754,15.659-0.667c12.791-4.071,24.102-19.001,21.712-32.698c-3.52-20.173-29.689-7.563-41.887-11.948
			c0.233,0.883,0.466,1.767,0.7,2.65C14.394,14.733,32.763,10.015,47.78,7.744C48.628,7.616,48.429,6.176,47.577,6.248L47.577,6.248
			z"/>
	</g>
</g>
<g>
	<g>
		<path fill="#FFFB54" d="M177.911,59.472c2.721,0,2.721-4.219,0-4.219S175.19,59.472,177.911,59.472L177.911,59.472z"/>
	</g>
</g>
<text transform="matrix(1 0 0 1 51.3325 70.0005)" fill="#FFFFFF" font-family="'Stellar-Regular'" font-size="13">Developer      Designer</text>
</svg>
